<?xml version="1.0" encoding="UTF-8"?>
<svg width="169px" height="33px" viewBox="0 0 169 33" version="1.1" xmlns="http://www.w3.org/2000/svg" xmlns:xlink="http://www.w3.org/1999/xlink">
    <!-- Generator: Sketch 52.6 (67491) - http://www.bohemiancoding.com/sketch -->
    <title>Logo/W</title>
    <desc>Created with Sketch.</desc>
    <defs>
        <polygon id="path-1" points="0.0001 0.8402 31.1601 0.8402 31.1601 32 0.0001 32"></polygon>
        <polygon id="path-3" points="0.5976 0.1936 21.661 0.1936 21.661 23.7926 0.5976 23.7926"></polygon>
    </defs>
    <g id="Logo/W" stroke="none" stroke-width="1" fill="none" fill-rule="evenodd">
        <g id="Logo" transform="translate(0.500000, 0.000000)">
            <g id="Group-3" transform="translate(0.000000, 0.990700)">
                <mask id="mask-2" fill="white">
                    <use xlink:href="#path-1"></use>
                </mask>
                <g id="Clip-2"></g>
                <path d="M16.0371,32.0002 C14.1811,32.0002 12.4431,31.7502 10.8231,31.2522 C9.2021,30.7532 7.7271,30.0412 6.3981,29.1122 C5.0681,28.1852 3.9261,27.0772 2.9711,25.7892 C2.0151,24.5012 1.2811,23.0752 0.7681,21.5092 C0.2561,19.9452 0.0001,18.2762 0.0001,16.5032 C0.0001,14.7032 0.2561,13.0132 0.7681,11.4352 C1.2811,9.8552 2.0151,8.4162 2.9711,7.1142 C3.9261,5.8122 5.0681,4.6972 6.3981,3.7692 C7.7271,2.8412 9.2021,2.1222 10.8231,1.6092 C12.4431,1.0972 14.1811,0.8402 16.0371,0.8402 C18.1691,0.8402 20.1421,1.1802 21.9571,1.8582 C23.7711,2.5372 25.3701,3.5062 26.7561,4.7662 L26.7971,4.8042 C28.7811,6.6182 27.9881,9.9072 25.3951,10.6182 L24.0221,10.9952 C22.8061,11.3282 21.5231,10.9562 20.6241,10.0712 C19.4101,8.8752 17.8671,8.2772 15.9951,8.2772 C14.5551,8.2772 13.2741,8.6242 12.1521,9.3152 C11.0301,10.0082 10.1581,10.9572 9.5351,12.1622 C8.9121,13.3662 8.6001,14.7582 8.6001,16.3372 C8.6001,17.5282 8.7871,18.6292 9.1611,19.6402 C9.5351,20.6512 10.0671,21.5242 10.7611,22.2572 C11.4521,22.9922 12.2691,23.5602 13.2121,23.9602 C14.1531,24.3622 15.1781,24.5632 16.2861,24.5632 C17.3101,24.5632 18.2391,24.3972 19.0691,24.0642 C19.9001,23.7322 20.6131,23.2752 21.2091,22.6932 C21.8051,22.1122 22.2271,21.4342 22.4761,20.6582 L19.8591,20.6582 C18.0471,20.6582 16.5771,19.1882 16.5771,17.3752 C16.5771,15.5632 18.0471,14.0932 19.8591,14.0932 L27.5461,14.0932 C29.5421,14.0932 31.1601,15.7112 31.1601,17.7082 C31.1601,19.7852 30.7861,21.6962 30.0381,23.4412 C29.2901,25.1862 28.2371,26.6962 26.8811,27.9702 C25.5231,29.2442 23.9241,30.2342 22.0821,30.9402 C20.2391,31.6462 18.2251,32.0002 16.0371,32.0002" id="Fill-1" fill="#FFFFFF" mask="url(#mask-2)"></path>
            </g>
            <path d="M43.8271,32.7829 C41.6941,32.7829 39.8321,32.3399 38.2391,31.4539 C36.6461,30.5679 35.4211,29.3139 34.5621,27.6939 C33.7041,26.0739 33.2741,24.1689 33.2741,21.9809 L33.2741,13.6929 C33.2741,11.5469 35.0141,9.8079 37.1591,9.8079 C39.3051,9.8079 41.0441,11.5469 41.0441,13.6929 L41.0441,22.1469 C41.0441,23.2829 41.3061,24.1689 41.8331,24.8059 C42.3591,25.4439 43.0801,25.7619 43.9941,25.7619 C44.8801,25.7619 45.5791,25.4439 46.0921,24.8059 C46.6041,24.1689 46.8601,23.2829 46.8601,22.1469 L46.8601,13.6929 C46.8601,11.5469 48.5991,9.8079 50.7451,9.8079 C52.8901,9.8079 54.6301,11.5469 54.6301,13.6929 L54.6301,21.9809 C54.6301,23.6159 54.3731,25.0909 53.8611,26.4059 C53.3481,27.7209 52.6141,28.8569 51.6591,29.8129 C50.7031,30.7679 49.5671,31.5019 48.2521,32.0139 C46.9361,32.5269 45.4621,32.7829 43.8271,32.7829" id="Fill-4" fill="#FFFFFF"></path>
            <path d="M57.3682,32.1598 L57.3682,16.9948 C57.3682,13.0258 60.5862,9.8078 64.5552,9.8078 C64.6302,10.8808 65.8892,11.4328 66.7142,10.7428 C66.8092,10.6628 66.9082,10.5868 67.0082,10.5138 C67.9212,9.8488 68.9872,9.5168 70.2062,9.5168 C70.9272,9.5168 71.5632,9.6418 72.1172,9.8908 L71.3702,17.6598 C70.7882,17.4668 70.1502,17.3688 69.4592,17.3688 C66.5772,17.3688 65.1382,18.8788 65.1382,21.8978 L65.1382,32.1598 L57.3682,32.1598 Z" id="Fill-6" fill="#FFFFFF"></path>
            <path d="M83.9971,14.7106 C83.0551,14.7106 82.2791,15.0156 81.6701,15.6246 C81.0601,16.2336 80.6451,17.1206 80.4241,18.2836 L87.4031,18.2836 C87.2101,17.1206 86.8221,16.2336 86.2401,15.6246 C85.6581,15.0156 84.9111,14.7106 83.9971,14.7106 M84.1211,32.7826 C82.4321,32.7826 80.8811,32.4926 79.4691,31.9106 C78.0561,31.3286 76.8371,30.5126 75.8121,29.4596 C74.7871,28.4066 73.9901,27.1536 73.4231,25.6996 C72.8551,24.2456 72.5711,22.6456 72.5711,20.9006 C72.5711,19.2386 72.8551,17.6946 73.4231,16.2686 C73.9901,14.8416 74.7941,13.5956 75.8331,12.5286 C76.8721,11.4626 78.0831,10.6386 79.4691,10.0576 C80.8521,9.4756 82.3621,9.1846 83.9971,9.1846 C85.7421,9.1846 87.3131,9.4756 88.7121,10.0576 C90.1101,10.6386 91.3091,11.4696 92.3061,12.5496 C93.3031,13.6296 94.0721,14.9256 94.6121,16.4346 C94.9931,17.4996 95.2391,19.3956 95.3511,21.0826 C95.4201,22.1166 94.5641,22.9776 93.5281,22.9366 L80.5071,22.9366 C80.7561,24.1276 81.2131,25.0346 81.8781,25.6576 C82.5431,26.2806 83.3741,26.5926 84.3711,26.5926 C85.5431,26.5926 86.5301,26.1866 87.3321,25.3736 C87.7361,24.9626 88.3151,24.7736 88.8791,24.8986 L92.8231,25.7746 C93.9751,26.0306 94.5271,27.3996 93.8191,28.3436 C93.4531,28.8326 93.0391,29.2876 92.5761,29.7086 C91.5101,30.6786 90.2501,31.4326 88.7961,31.9726 C87.3411,32.5126 85.7831,32.7826 84.1211,32.7826" id="Fill-8" fill="#FFFFFF"></path>
            <path d="M107.8828,32.7829 C105.7498,32.7829 103.8878,32.3399 102.2948,31.4539 C100.7018,30.5679 99.4768,29.3139 98.6178,27.6939 C97.7598,26.0739 97.3298,24.1689 97.3298,21.9809 L97.3298,13.6929 C97.3298,11.5469 99.0698,9.8079 101.2148,9.8079 C103.3608,9.8079 105.0998,11.5469 105.0998,13.6929 L105.0998,22.1469 C105.0998,23.2829 105.3618,24.1689 105.8888,24.8059 C106.4148,25.4439 107.1358,25.7619 108.0498,25.7619 C108.9358,25.7619 109.6348,25.4439 110.1478,24.8059 C110.6598,24.1689 110.9158,23.2829 110.9158,22.1469 L110.9158,13.6929 C110.9158,11.5469 112.6548,9.8079 114.8008,9.8079 C116.9458,9.8079 118.6858,11.5469 118.6858,13.6929 L118.6858,21.9809 C118.6858,23.6159 118.4288,25.0909 117.9168,26.4059 C117.4038,27.7209 116.6698,28.8569 115.7148,29.8129 C114.7588,30.7679 113.6228,31.5019 112.3078,32.0139 C110.9918,32.5269 109.5178,32.7829 107.8828,32.7829" id="Fill-10" fill="#FFFFFF"></path>
            <g id="Group-14" transform="translate(146.000000, 8.990700)">
                <mask id="mask-4" fill="white">
                    <use xlink:href="#path-3"></use>
                </mask>
                <g id="Clip-13"></g>
                <path d="M14.0996,15.0676 C14.0996,15.7056 13.9476,16.2656 13.6436,16.7506 C13.3376,17.2346 12.9156,17.6226 12.3756,17.9136 C11.8356,18.2046 11.2466,18.3496 10.6106,18.3496 C9.9176,18.3496 9.3426,18.1626 8.8856,17.7886 C8.4286,17.4146 8.2006,16.9516 8.2006,16.3976 C8.2006,15.7326 8.4916,15.2066 9.0736,14.8186 C9.6546,14.4306 10.4446,14.2366 11.4416,14.2366 C11.8836,14.2366 12.3406,14.2926 12.8126,14.4026 C13.2836,14.5136 13.7116,14.6516 14.0996,14.8186 L14.0996,15.0676 Z M20.9136,5.9066 C20.4146,4.7296 19.7086,3.7186 18.7946,2.8736 C17.8806,2.0286 16.7926,1.3716 15.5336,0.9006 C14.2726,0.4296 12.8806,0.1936 11.3586,0.1936 C10.1116,0.1936 8.9416,0.3596 7.8476,0.6926 C6.7526,1.0256 5.7626,1.4886 4.8766,2.0846 C3.9906,2.6806 3.2426,3.3936 2.6326,4.2236 C2.0236,5.0546 1.6086,5.9686 1.3866,6.9656 L8.4086,8.0466 C8.6016,7.4926 8.9486,7.0426 9.4476,6.6956 C9.9456,6.3496 10.5276,6.1766 11.1916,6.1766 C12.0496,6.1766 12.7496,6.4746 13.2896,7.0696 C13.8296,7.6656 14.0996,8.4346 14.0996,9.3756 L14.0996,10.4556 C13.3796,10.1796 12.7016,9.9856 12.0646,9.8746 C11.4266,9.7636 10.7066,9.7086 9.9046,9.7086 C8.0476,9.7086 6.4206,10.0136 5.0226,10.6226 C3.6226,11.2316 2.5366,12.0766 1.7606,13.1566 C0.9856,14.2366 0.5976,15.4976 0.5976,16.9376 C0.5976,17.9066 0.7906,18.8066 1.1786,19.6376 C1.5666,20.4686 2.1066,21.1956 2.7996,21.8186 C3.4916,22.4426 4.3016,22.9266 5.2296,23.2736 C6.0966,23.5966 7.0356,23.7626 8.0366,23.7836 L8.0366,23.7926 L17.6616,23.7926 C19.7806,23.7926 21.4966,22.1386 21.6346,20.0536 L21.6616,20.0426 L21.6616,9.7916 C21.6616,8.3786 21.4116,7.0846 20.9136,5.9066 Z" id="Fill-12" fill="#FFFFFF" mask="url(#mask-4)"></path>
            </g>
            <path d="M136.6289,23.3937 C136.2689,24.1137 135.7709,24.6817 135.1339,25.0967 C134.4959,25.5127 133.7759,25.7207 132.9739,25.7207 C132.1699,25.7207 131.4419,25.5127 130.7919,25.0967 C130.1409,24.6817 129.6289,24.1137 129.2549,23.3937 C128.8809,22.6737 128.6939,21.8557 128.6939,20.9427 C128.6939,20.0287 128.8809,19.2117 129.2549,18.4907 C129.6289,17.7707 130.1409,17.2037 130.7919,16.7877 C131.4419,16.3727 132.1699,16.1647 132.9739,16.1647 C133.7759,16.1647 134.4959,16.3727 135.1339,16.7877 C135.7709,17.2037 136.2689,17.7707 136.6289,18.4907 C136.9889,19.2117 137.1689,20.0287 137.1689,20.9427 C137.1689,21.8557 136.9889,22.6737 136.6289,23.3937 M141.0129,0.9997 C138.8669,0.9997 137.1279,2.7387 137.1279,4.8847 L137.1279,11.9267 C136.4359,11.0407 135.5829,10.3627 134.5719,9.8907 C133.5619,9.4207 132.4329,9.1847 131.1869,9.1847 C129.7189,9.1847 128.3549,9.4897 127.0949,10.0987 C125.8339,10.7077 124.7329,11.5527 123.7909,12.6327 C122.8499,13.7127 122.1149,14.9807 121.5899,16.4347 C121.0639,17.8887 120.7999,19.4607 120.7999,21.1497 C120.7999,22.7847 121.0499,24.3077 121.5479,25.7207 C122.0469,27.1327 122.7459,28.3657 123.6469,29.4177 C124.5459,30.4707 125.5919,31.2947 126.7829,31.8897 C127.9739,32.4847 129.2619,32.7827 130.6469,32.7827 L143.4829,32.7827 C144.2639,32.7827 144.8969,32.1497 144.8969,31.3687 L144.8969,4.8847 C144.8969,2.7387 143.1569,0.9997 141.0129,0.9997" id="Fill-15" fill="#FFFFFF"></path>
        </g>
    </g>
</svg>